# ProBuilder 4.5.2
# https://unity3d.com/unity/features/worldbuilding/probuilder
# 14/09/2022 02:04:38

mtllib ./Iceberg_2.mtl
o Iceberg 2

g Cube (2)
v 2.111305 0 2.755173
v 0.187748 0 6.678207
v 0.187748 0.1453056 6.678207
v 2.111305 0.1453047 2.755173
v -5.245836 0 3.544495
v -5.245836 0.1453047 3.544495
v -4.943382 0 -3.170471
v -4.943382 0.1453047 -3.170471
v -2.598907 0 -5.711838
v -2.598907 0.1453056 -5.711838
v 1.811121 0 -1.835785
v 1.811121 0.1453047 -1.835785
v 0.187748 0.2906094 6.678207
v -5.245836 0.2906094 3.544495
v -3.88744 0.717926 4.327927
v -2.529045 0.717926 5.111343
v -1.170648 0.2906094 5.894779
v 1.149527 0.2906094 4.71669
v 1.630416 0.2906094 3.735931
v 2.111305 0.2906094 2.755173
v 0.6686373 0.2906094 5.697449
v -4.943382 0.2906094 -3.170471
v -5.018996 0.2906094 -1.49173
v -5.094609 0.2906094 0.1870117
v -5.170223 0.2906094 1.865753
v -0.3938942 0.9060383 -3.773819
v -1.4964 0.2906094 -4.742825
v -2.598907 0.2906094 -5.711838
v 1.811121 1.65554 -1.835785
v 0.7086143 2.270969 -2.804794
v -3.185026 0.7525463 -5.076492
v -3.771145 0.7525463 -4.441147
v -4.357264 0.2906094 -3.805813
v 1.961212 1.055662 0.4597015
v 1.886168 1.65554 -0.6880493
v 2.036259 1.055662 1.607437
v -2.052568 0.7525463 -3.387543
v -0.9201088 0.9060383 -1.698593
v -1.446325 -0.9064865 0.3766327
v -2.608734 0.7525463 -2.032257
v 0.4830284 2.270969 -1.193314
v 0.2574444 0.8169212 0.4181671
v 0.9439297 0.8169212 2.077042
v -0.1483994 0.05186844 2.546661
v -1.987684 -0.2404289 2.743988
v -0.6595237 0.2906094 4.22072
v -3.578953 -0.2404289 2.304871
v -3.270468 -0.6677456 0.2818146
v -3.813865 0.2906094 -1.761996

vt 1.21616 -3.818143E-06
vt -1.767737 -7.566486E-06
vt -1.767737 0.1452981
vt 1.21616 0.1453009
vt -6.051417 -2.185368E-06
vt -6.051417 0.1453025
vt 3.776947 -6.896581E-09
vt -2.944827 -6.896581E-09
vt -2.944827 0.1453047
vt 3.776947 0.1453047
vt 4.770831 -9.378688E-06
vt 2.296673 -1.599321E-05
vt 2.296673 0.1452896
vt 4.770831 0.1452953
vt -1.904639 -4.76124E-06
vt -1.904639 0.1452999
vt 1.713704 -5.237394E-08
vt -2.887058 -5.237395E-08
vt -2.887058 0.1453046
vt 1.713704 0.1453046
vt 1.811121 -1.835785
vt -2.598907 -5.711838
vt 0.187748 6.678207
vt 2.111305 2.755173
vt -4.943382 -3.170471
vt -5.245836 3.544495
vt -1.767737 0.2906018
vt -6.051417 0.2906072
vt -4.980498 0.7179225
vt -3.909576 0.7179211
vt -2.838657 0.2906031
vt -0.2757887 0.2906037
vt 0.4701857 0.2906046
vt 1.21616 0.2906055
vt -1.021763 0.2906027
vt 3.776947 0.2906094
vt -2.944827 0.2906094
vt -1.264383 0.2906094
vt 0.4160601 0.2906094
vt 2.096503 0.2906094
vt 0.1960177 0.9060279
vt 1.246345 0.2905962
vt 2.296673 0.2905934
vt -1.904639 1.655536
vt -0.854311 2.270962
vt 4.770831 0.2906
vt 2.915212 0.7525319
vt 3.533752 0.7525336
vt 4.152291 0.2905983
vt -0.5866845 1.055662
vt 0.5635172 1.65554
vt 1.713704 1.65554
vt -2.887058 0.2906093
vt -1.736871 1.055662
vt 2.565341 -5.72429
vt 1.466725 -4.752976
vt 1.982155 -3.413176
vt 3.110616 -5.104189
vt 0.3164508 -3.799688
vt 0.8408083 -1.726656
vt 1.517312 0.3994432
vt 2.536358 -2.059847
vt 3.694667 -4.470563
vt -0.6719499 -1.258097
vt -0.3251086 0.3947036
vt -0.8967397 -2.868325
vt -1.943696 -1.878997
vt -2.018478 -0.7315716
vt -2.042903 0.4334322
vt -2.117685 1.580857
vt -1.009171 2.054555
vt -2.128248 2.750682
vt -1.649056 3.729831
vt -1.169864 4.708981
vt 0.1435218 2.543677
vt 2.459857 5.08188
vt 2.000851 2.744941
vt 0.6328022 4.208763
vt 1.142123 5.880838
vt -0.6906714 5.688129
vt -0.2114792 6.667279
vt 5.202929 3.521518
vt 5.127582 1.843688
vt 3.586504 2.302088
vt 3.813457 4.295451
vt 5.052236 0.1658575
vt 3.314976 0.2931772
vt 4.901542 -3.189803
vt 4.317492 -3.823425
vt 3.776012 -1.77915
vt 4.976889 -1.511973

vn 0.8978754 0 0.4402497
vn -0.4995972 0 0.8662579
vn -0.9989871 0 -0.04499616
vn -0.7350056 0 -0.6780611
vn 0.6601697 0 -0.7511165
vn 0.9978692 0 -0.06524666
vn 0 -1 0
vn -0.166533 -3.678695E-06 0.2887523
vn -8.940697E-07 -1.087287E-05 -5.066395E-07
vn 0.2200569 2.355862E-06 -0.2503718
vn -0.2450013 -2.606318E-06 -0.226021
vn 0.3112206 0.8819061 -0.3540952
vn 0.3030129 0.9083973 -0.2758825
vn 0.2948052 0.9348885 -0.1976698
vn -0.1726892 0.9085046 -0.3805231
vn -0.1352667 0.9516985 -0.2026667
vn -0.09784419 0.9948925 -0.02481033
vn -0.1375609 0.879337 0.2916635
vn -0.191387 0.7627786 0.617689
vn -0.08373473 0.9958954 -0.03436204
vn 0 1 0
vn -0.6585407 0.6415568 0.393356
vn -0.6824936 0.6066918 0.4052131
vn -0.7064464 0.5718268 0.4170703
vn -0.6882821 0.7109905 -0.1361127
vn -0.7001457 0.6915758 -0.1775358
vn -0.6764185 0.7304052 -0.09468963
vn 0.4442398 0.893747 0.06218768
vn 0.4269195 0.9028097 0.01770269
vn 0.4095992 0.9118723 -0.02678231
vn -0.0272074 0.8045893 0.5698982
vn -0.1339178 0.8746471 0.4658953
vn 0.07950297 0.7345315 0.6739012
vn -0.1739202 0.9832598 0.03574903
vn -0.2079196 0.9780514 0.01359515
vn -0.1399209 0.9884682 0.05790291
vn 0.05506661 0.8324807 0.5513108
vn 0.1909483 0.8819391 0.3557817
vn 0.32683 0.9313975 0.1602525
vn -0.246025 0.9058065 0.1861478
vn -0.1004437 0.993723 -0.04924995
vn -0.3916063 0.8178899 0.4215455
vn -0.603896 0.7689285 0.161233
vn -0.7077746 0.6969249 0.1155457
vn -0.5000175 0.840932 0.2069202
vn 0.1474188 0.9461331 -0.1445009
vn 0.03724648 0.9292182 -0.3676496
vn 0.2575911 0.963048 0.0786478
vn -0.1776413 0.9505768 -0.2477211
vn -0.1812762 0.9350899 -0.304542
vn -0.1740065 0.9660636 -0.1909001
vn 0.03574732 0.9908184 -0.1303883
vn 0.01787366 0.9954092 -0.06519413
vn 0.1393793 0.9254026 -0.209011
vn 0.3130232 0.9496408 0.01409912
vn -0.03426461 0.9011644 -0.4321212
vn 0.4063174 0.9059622 -0.06081668
vn 0.4641395 0.8855154 0.02090567
vn 0.3484952 0.926409 -0.142539
vn 0.09647432 0.9698887 -0.2185895
vn 0.1382113 0.9611772 -0.2388224
vn 0.05473737 0.9786003 -0.1983566
vn 0.1520589 0.9143957 -0.3708736
vn 0.1906556 0.9243183 -0.3305847
vn 0.1134621 0.9044732 -0.4111625
vn -0.3937302 0.9018072 0.1532914
vn -0.4486758 0.8670721 0.2165087
vn -0.3387847 0.9365424 0.09007409
vn -0.0716802 0.8482974 0.5001559
vn 0.08180636 0.8388187 0.5382294
vn -0.2251668 0.857776 0.4620825
vn 0.4341075 0.8545031 0.2852634
vn 0.2170538 0.9272516 0.1426317

usemtl Lit
f 17/31/9 3/3/8 13/27/2
f 17/31/9 16/30/8 3/3/8
f 3/3/8 16/30/8 6/6/2
f 6/6/2 16/30/8 15/29/2
f 15/29/2 14/28/2 6/6/2
f 4/4/1 20/34/1 19/33/1
f 19/33/1 18/32/1 4/4/1
f 4/4/1 18/32/1 3/3/1
f 3/3/1 18/32/1 21/35/1
f 13/27/1 3/3/1 21/35/1
f 25/40/3 6/10/3 14/36/3
f 25/40/3 24/39/3 6/10/3
f 6/10/3 24/39/3 8/9/3
f 8/9/3 24/39/3 23/38/3
f 23/38/3 22/37/3 8/9/3
f 10/13/10 28/43/5 27/42/9
f 27/42/9 26/41/10 10/13/10
f 10/13/10 26/41/10 12/16/5
f 12/16/5 26/41/10 30/45/5
f 29/44/5 12/16/5 30/45/5
f 33/49/9 8/14/11 22/46/4
f 33/49/9 32/48/11 8/14/11
f 8/14/11 32/48/11 10/13/4
f 10/13/4 32/48/11 31/47/4
f 31/47/4 28/43/4 10/13/4
f 12/20/6 29/52/6 35/51/6
f 35/51/6 34/50/6 12/20/6
f 12/20/6 34/50/6 4/19/6
f 4/19/6 34/50/6 36/54/6
f 20/53/6 4/19/6 36/54/6
f 3/3/1 2/2/1 1/1/1
f 1/1/1 4/4/1 3/3/1
f 6/6/2 5/5/2 2/2/2
f 2/2/2 3/3/2 6/6/2
f 8/9/3 7/8/3 5/7/3
f 5/7/3 6/10/3 8/9/3
f 8/14/4 10/13/4 9/12/4
f 9/12/4 7/11/4 8/14/4
f 10/13/5 12/16/5 11/15/5
f 11/15/5 9/12/5 10/13/5
f 11/17/6 12/20/6 4/19/6
f 4/19/6 1/18/6 11/17/6
f 9/22/7 11/21/7 1/24/7
f 1/24/7 2/23/7 9/22/7
f 9/22/7 2/23/7 5/26/7
f 5/26/7 7/25/7 9/22/7
f 37/57/14 27/56/13 28/55/12
f 28/55/12 31/58/13 37/57/14
f 26/59/16 27/56/15 37/57/16
f 37/57/16 38/60/17 26/59/16
f 38/60/18 37/57/20 40/62/18
f 40/62/18 39/61/19 38/60/18
f 37/57/21 31/58/21 32/63/21
f 32/63/21 40/62/21 37/57/21
f 38/60/23 39/61/22 42/65/23
f 42/65/23 41/64/24 38/60/23
f 30/66/25 26/59/26 38/60/25
f 38/60/25 41/64/27 30/66/25
f 29/67/29 30/66/28 41/64/29
f 41/64/29 35/68/30 29/67/29
f 35/68/31 41/64/33 42/65/31
f 42/65/31 34/69/32 35/68/31
f 36/70/35 34/69/34 42/65/36
f 42/65/36 43/71/34 36/70/35
f 20/72/38 36/70/37 43/71/38
f 43/71/38 19/73/39 20/72/38
f 19/73/40 43/71/42 44/75/40
f 44/75/40 18/74/41 19/73/40
f 43/71/45 42/65/43 39/61/44
f 39/61/44 44/75/43 43/71/45
f 46/78/46 45/77/47 16/76/46
f 16/76/46 17/79/48 46/78/46
f 44/75/49 39/61/50 45/77/49
f 45/77/49 46/78/51 44/75/49
f 18/74/53 44/75/52 46/78/53
f 46/78/53 21/80/21 18/74/53
f 21/80/21 46/78/21 17/79/21
f 17/79/21 13/81/21 21/80/21
f 47/84/54 25/83/55 14/82/54
f 14/82/54 15/85/56 47/84/54
f 48/87/57 24/86/58 25/83/57
f 25/83/57 47/84/59 48/87/57
f 39/61/61 48/87/60 47/84/62
f 47/84/62 45/77/60 39/61/61
f 45/77/63 47/84/65 15/85/63
f 15/85/63 16/76/64 45/77/63
f 49/90/21 33/89/21 22/88/21
f 22/88/21 23/91/21 49/90/21
f 40/62/66 32/63/67 33/89/66
f 33/89/66 49/90/68 40/62/66
f 39/61/70 40/62/69 49/90/71
f 49/90/71 48/87/69 39/61/70
f 48/87/72 49/90/73 23/91/21
f 23/91/21 24/86/73 48/87/72

